<svg width="24" height="23" viewBox="0 0 24 23" fill="none" xmlns="http://www.w3.org/2000/svg">
<path d="M16 13.9893C16 13.7419 15.8946 13.5047 15.7071 13.3298C15.5196 13.1549 15.2652 13.0566 15 13.0566H9C8.449 13.0566 8 13.4745 8 13.9893V15.8545H16V13.9893ZM8 17.7197H16V20.5176H8V17.7197Z" fill="#C9770D"/>
<path d="M21 11.1914C21 8.42433 18.833 6.12543 16 5.67964V4.66309C16 3.12054 14.654 1.86523 13 1.86523H11C9.346 1.86523 8 3.12054 8 4.66309V5.67964C5.167 6.12543 3 8.42433 3 11.1914V18.6523C3 19.681 3.897 20.5176 5 20.5176H6V13.9893C6 12.4467 7.346 11.1914 9 11.1914H15C16.654 11.1914 18 12.4467 18 13.9893V20.5176H19C20.103 20.5176 21 19.681 21 18.6523V11.1914ZM10 4.66309C10 4.14828 10.449 3.73047 11 3.73047H13C13.2652 3.73047 13.5196 3.82873 13.7071 4.00363C13.8946 4.17853 14 4.41574 14 4.66309V5.5957H10V4.66309Z" fill="#C9770D"/>
</svg>
