<svg width="24" height="23" viewBox="0 0 24 23" fill="none" xmlns="http://www.w3.org/2000/svg">
<path d="M20.25 4.44775H3.75003C3.3522 4.44775 2.97067 4.59514 2.68937 4.85749C2.40806 5.11984 2.25003 5.47566 2.25003 5.84668V19.8359C2.2483 20.1027 2.32921 20.3643 2.48305 20.5892C2.63689 20.8141 2.8571 20.9927 3.11721 21.1037C3.31543 21.1898 3.53138 21.2345 3.75003 21.2349C4.10214 21.234 4.44256 21.1169 4.71096 20.9044L4.7194 20.8982L7.78128 18.437H20.25C20.6479 18.437 21.0294 18.2896 21.3107 18.0273C21.592 17.7649 21.75 17.4091 21.75 17.0381V5.84668C21.75 5.47566 21.592 5.11984 21.3107 4.85749C21.0294 4.59514 20.6479 4.44775 20.25 4.44775ZM20.25 17.0381H7.50003C7.31994 17.0382 7.1459 17.0987 7.00971 17.2086L3.75003 19.8359V5.84668H20.25V17.0381Z" fill="#C9770D"/>
</svg>
