<svg width="24" height="23" viewBox="0 0 24 23" fill="none" xmlns="http://www.w3.org/2000/svg">
<path d="M21.5306 19.4329L16.8365 15.056C18.1971 13.5326 18.8755 11.5788 18.7307 9.60081C18.5859 7.62285 17.629 5.7731 16.0591 4.43636C14.4892 3.09961 12.4271 2.37878 10.3019 2.42383C8.17663 2.46887 6.15181 3.27632 4.64864 4.6782C3.14547 6.08008 2.27968 7.96847 2.23138 9.95051C2.18308 11.9326 2.95599 13.8557 4.38932 15.3198C5.82265 16.7839 7.80604 17.6763 9.92691 17.8114C12.0478 17.9464 14.1428 17.3137 15.7762 16.0448L20.4693 20.4226C20.539 20.4876 20.6218 20.5391 20.7128 20.5743C20.8038 20.6095 20.9014 20.6276 21 20.6276C21.0985 20.6276 21.1961 20.6095 21.2871 20.5743C21.3782 20.5391 21.4609 20.4876 21.5306 20.4226C21.6003 20.3576 21.6556 20.2805 21.6933 20.1956C21.731 20.1106 21.7504 20.0196 21.7504 19.9277C21.7504 19.8358 21.731 19.7448 21.6933 19.6599C21.6556 19.575 21.6003 19.4979 21.5306 19.4329ZM3.74997 10.1353C3.74997 8.89019 4.14585 7.67308 4.88755 6.63785C5.62925 5.60261 6.68345 4.79575 7.91686 4.31928C9.15026 3.84281 10.5075 3.71815 11.8168 3.96105C13.1262 4.20395 14.3289 4.8035 15.2729 5.6839C16.2169 6.56429 16.8598 7.68599 17.1203 8.90713C17.3807 10.1283 17.247 11.394 16.7362 12.5443C16.2253 13.6946 15.3601 14.6778 14.2501 15.3695C13.14 16.0612 11.835 16.4304 10.5 16.4304C8.71037 16.4286 6.99463 15.7647 5.72919 14.5846C4.46375 13.4044 3.75195 11.8043 3.74997 10.1353Z" fill="#C9770D"/>
</svg>
