<svg width="24" height="24" viewBox="0 0 24 24" fill="none" xmlns="http://www.w3.org/2000/svg">
<path d="M21 4.95166V14.0447C21 14.4157 20.842 14.7715 20.5607 15.0339C20.2794 15.2962 19.8978 15.4436 19.5 15.4436H9.31031L10.2806 16.3477C10.3503 16.4126 10.4056 16.4898 10.4433 16.5747C10.481 16.6596 10.5004 16.7506 10.5004 16.8425C10.5004 16.9344 10.481 17.0254 10.4433 17.1104C10.4056 17.1953 10.3503 17.2724 10.2806 17.3374C10.2109 17.4024 10.1282 17.4539 10.0372 17.4891C9.94613 17.5243 9.84855 17.5424 9.75 17.5424C9.65145 17.5424 9.55387 17.5243 9.46283 17.4891C9.37178 17.4539 9.28906 17.4024 9.21937 17.3374L6.96937 15.239C6.89964 15.174 6.84432 15.0969 6.80658 15.012C6.76884 14.9271 6.74941 14.8361 6.74941 14.7441C6.74941 14.6522 6.76884 14.5612 6.80658 14.4763C6.84432 14.3914 6.89964 14.3142 6.96937 14.2493L9.21937 12.1509C9.36011 12.0196 9.55098 11.9459 9.75 11.9459C9.94902 11.9459 10.1399 12.0196 10.2806 12.1509C10.4214 12.2821 10.5004 12.4601 10.5004 12.6458C10.5004 12.8314 10.4214 13.0094 10.2806 13.1406L9.31031 14.0447H19.5V4.95166H9V5.65112C9 5.83663 8.92098 6.01454 8.78033 6.14572C8.63968 6.27689 8.44891 6.35059 8.25 6.35059C8.05109 6.35059 7.86032 6.27689 7.71967 6.14572C7.57902 6.01454 7.5 5.83663 7.5 5.65112V4.95166C7.5 4.58064 7.65804 4.22482 7.93934 3.96247C8.22064 3.70012 8.60218 3.55273 9 3.55273H19.5C19.8978 3.55273 20.2794 3.70012 20.5607 3.96247C20.842 4.22482 21 4.58064 21 4.95166ZM15.75 17.542C15.5511 17.542 15.3603 17.6157 15.2197 17.7469C15.079 17.878 15 18.0559 15 18.2415V18.9409H4.5V9.8479H14.6897L13.7194 10.752C13.5786 10.8832 13.4996 11.0612 13.4996 11.2468C13.4996 11.4324 13.5786 11.6104 13.7194 11.7417C13.8601 11.8729 14.051 11.9467 14.25 11.9467C14.449 11.9467 14.6399 11.8729 14.7806 11.7417L17.0306 9.64331C17.1004 9.57835 17.1557 9.5012 17.1934 9.41629C17.2312 9.33138 17.2506 9.24036 17.2506 9.14844C17.2506 9.05652 17.2312 8.9655 17.1934 8.88058C17.1557 8.79567 17.1004 8.71853 17.0306 8.65357L14.7806 6.55518C14.6399 6.42393 14.449 6.3502 14.25 6.3502C14.051 6.3502 13.8601 6.42393 13.7194 6.55518C13.5786 6.68643 13.4996 6.86444 13.4996 7.05005C13.4996 7.23566 13.5786 7.41367 13.7194 7.54492L14.6897 8.44897H4.5C4.10218 8.44897 3.72064 8.59636 3.43934 8.85871C3.15804 9.12106 3 9.47688 3 9.8479V18.9409C3 19.3119 3.15804 19.6678 3.43934 19.9301C3.72064 20.1925 4.10218 20.3398 4.5 20.3398H15C15.3978 20.3398 15.7794 20.1925 16.0607 19.9301C16.342 19.6678 16.5 19.3119 16.5 18.9409V18.2415C16.5 18.0559 16.421 17.878 16.2803 17.7469C16.1397 17.6157 15.9489 17.542 15.75 17.542Z" fill="#C9770D"/>
</svg>
